<svg xmlns="http://www.w3.org/2000/svg" width="192" height="64" viewBox="0 0 192 64" shape-rendering="crispEdges"><g transform="translate(0 0)"><svg width="32" height="16" viewBox="0 0 32 32" preserveAspectRatio="none"><defs><clipPath id="diamond00"><path d="M16 0L32 16L16 32L0 16Z"/></clipPath></defs><g clip-path="url(#diamond00)"><rect x="0" y="0" width="32" height="32" fill="#4d5c4c"/><rect x="0" y="0" width="1" height="1" fill="#607052"/><rect x="13" y="19" width="2" height="1" fill="#465347"/><rect x="26" y="6" width="3" height="1" fill="#465347"/><rect x="7" y="25" width="1" height="1" fill="#607052"/><rect x="20" y="12" width="2" height="1" fill="#465347"/><rect x="1" y="31" width="3" height="1" fill="#465347"/><rect x="14" y="18" width="1" height="1" fill="#607052"/><rect x="27" y="5" width="2" height="1" fill="#465347"/><rect x="8" y="24" width="3" height="1" fill="#465347"/><rect x="21" y="11" width="1" height="1" fill="#607052"/><rect x="2" y="30" width="2" height="1" fill="#465347"/><rect x="15" y="17" width="3" height="1" fill="#465347"/><rect x="28" y="4" width="1" height="1" fill="#607052"/><rect x="9" y="23" width="2" height="1" fill="#465347"/><rect x="22" y="10" width="3" height="1" fill="#465347"/><rect x="3" y="29" width="1" height="1" fill="#607052"/><rect x="16" y="16" width="2" height="1" fill="#465347"/><rect x="29" y="3" width="3" height="1" fill="#465347"/><rect x="10" y="22" width="1" height="1" fill="#607052"/><rect x="23" y="9" width="2" height="1" fill="#465347"/><rect x="4" y="28" width="3" height="1" fill="#465347"/><rect x="17" y="15" width="1" height="1" fill="#607052"/><rect x="30" y="2" width="2" height="1" fill="#465347"/><rect x="11" y="21" width="3" height="1" fill="#465347"/><path d="M2 24h4v-1h6v1h4v2h-6v1H4v-1H2zM20 7h3V6h5v2h2v2h-5v1h-5z" fill="#566548"/><rect x="4" y="17" width="4" height="2" fill="#394b42"/><rect x="5" y="16" width="3" height="1" fill="#82927b"/><rect x="8" y="17" width="1" height="2" fill="#667961"/><path d="M21 26v-3h1v2h1v-4h1v4h2v-2h1v4z" fill="#798755"/></g></svg></g><g transform="translate(32 0)"><svg width="32" height="16" viewBox="0 0 32 32" preserveAspectRatio="none"><defs><clipPath id="diamond320"><path d="M16 0L32 16L16 32L0 16Z"/></clipPath></defs><g clip-path="url(#diamond320)"><rect x="0" y="0" width="32" height="32" fill="#4f5e4e"/><rect x="7" y="11" width="1" height="1" fill="#607052"/><rect x="20" y="30" width="2" height="1" fill="#465347"/><rect x="1" y="17" width="3" height="1" fill="#465347"/><rect x="14" y="4" width="1" height="1" fill="#607052"/><rect x="27" y="23" width="2" height="1" fill="#465347"/><rect x="8" y="10" width="3" height="1" fill="#465347"/><rect x="21" y="29" width="1" height="1" fill="#607052"/><rect x="2" y="16" width="2" height="1" fill="#465347"/><rect x="15" y="3" width="3" height="1" fill="#465347"/><rect x="28" y="22" width="1" height="1" fill="#607052"/><rect x="9" y="9" width="2" height="1" fill="#465347"/><rect x="22" y="28" width="3" height="1" fill="#465347"/><rect x="3" y="15" width="1" height="1" fill="#607052"/><rect x="16" y="2" width="2" height="1" fill="#465347"/><rect x="29" y="21" width="3" height="1" fill="#465347"/><rect x="10" y="8" width="1" height="1" fill="#607052"/><rect x="23" y="27" width="2" height="1" fill="#465347"/><rect x="4" y="14" width="3" height="1" fill="#465347"/><rect x="17" y="1" width="1" height="1" fill="#607052"/><rect x="30" y="20" width="2" height="1" fill="#465347"/><rect x="11" y="7" width="3" height="1" fill="#465347"/><rect x="24" y="26" width="1" height="1" fill="#607052"/><rect x="5" y="13" width="2" height="1" fill="#465347"/><rect x="18" y="0" width="3" height="1" fill="#465347"/><path d="M2 24h4v-1h6v1h4v2h-6v1H4v-1H2zM20 7h3V6h5v2h2v2h-5v1h-5z" fill="#566548"/><rect x="5" y="17" width="4" height="2" fill="#394b42"/><rect x="6" y="16" width="3" height="1" fill="#82927b"/><rect x="9" y="17" width="1" height="2" fill="#667961"/><path d="M21 26v-3h1v2h1v-4h1v4h2v-2h1v4z" fill="#798755"/></g></svg></g><g transform="translate(64 0)"><svg width="32" height="16" viewBox="0 0 32 32" preserveAspectRatio="none"><defs><clipPath id="diamond640"><path d="M16 0L32 16L16 32L0 16Z"/></clipPath></defs><g clip-path="url(#diamond640)"><rect x="0" y="0" width="32" height="32" fill="#4a594b"/><rect x="14" y="22" width="1" height="1" fill="#607052"/><rect x="27" y="9" width="2" height="1" fill="#465347"/><rect x="8" y="28" width="3" height="1" fill="#465347"/><rect x="21" y="15" width="1" height="1" fill="#607052"/><rect x="2" y="2" width="2" height="1" fill="#465347"/><rect x="15" y="21" width="3" height="1" fill="#465347"/><rect x="28" y="8" width="1" height="1" fill="#607052"/><rect x="9" y="27" width="2" height="1" fill="#465347"/><rect x="22" y="14" width="3" height="1" fill="#465347"/><rect x="3" y="1" width="1" height="1" fill="#607052"/><rect x="16" y="20" width="2" height="1" fill="#465347"/><rect x="29" y="7" width="3" height="1" fill="#465347"/><rect x="10" y="26" width="1" height="1" fill="#607052"/><rect x="23" y="13" width="2" height="1" fill="#465347"/><rect x="4" y="0" width="3" height="1" fill="#465347"/><rect x="17" y="19" width="1" height="1" fill="#607052"/><rect x="30" y="6" width="2" height="1" fill="#465347"/><rect x="11" y="25" width="3" height="1" fill="#465347"/><rect x="24" y="12" width="1" height="1" fill="#607052"/><rect x="5" y="31" width="2" height="1" fill="#465347"/><rect x="18" y="18" width="3" height="1" fill="#465347"/><rect x="31" y="5" width="1" height="1" fill="#607052"/><rect x="12" y="24" width="2" height="1" fill="#465347"/><rect x="25" y="11" width="3" height="1" fill="#465347"/><path d="M2 24h4v-1h6v1h4v2h-6v1H4v-1H2zM20 7h3V6h5v2h2v2h-5v1h-5z" fill="#566548"/><rect x="6" y="17" width="4" height="2" fill="#394b42"/><rect x="7" y="16" width="3" height="1" fill="#82927b"/><rect x="10" y="17" width="1" height="2" fill="#667961"/><path d="M21 26v-3h1v2h1v-4h1v4h2v-2h1v4z" fill="#798755"/></g></svg></g><g transform="translate(96 0)"><svg width="32" height="16" viewBox="0 0 32 32" preserveAspectRatio="none"><defs><clipPath id="diamond960"><path d="M16 0L32 16L16 32L0 16Z"/></clipPath></defs><g clip-path="url(#diamond960)"><rect x="0" y="0" width="32" height="32" fill="#505d4b"/><rect x="21" y="1" width="1" height="1" fill="#607052"/><rect x="2" y="20" width="2" height="1" fill="#465347"/><rect x="15" y="7" width="3" height="1" fill="#465347"/><rect x="28" y="26" width="1" height="1" fill="#607052"/><rect x="9" y="13" width="2" height="1" fill="#465347"/><rect x="22" y="0" width="3" height="1" fill="#465347"/><rect x="3" y="19" width="1" height="1" fill="#607052"/><rect x="16" y="6" width="2" height="1" fill="#465347"/><rect x="29" y="25" width="3" height="1" fill="#465347"/><rect x="10" y="12" width="1" height="1" fill="#607052"/><rect x="23" y="31" width="2" height="1" fill="#465347"/><rect x="4" y="18" width="3" height="1" fill="#465347"/><rect x="17" y="5" width="1" height="1" fill="#607052"/><rect x="30" y="24" width="2" height="1" fill="#465347"/><rect x="11" y="11" width="3" height="1" fill="#465347"/><rect x="24" y="30" width="1" height="1" fill="#607052"/><rect x="5" y="17" width="2" height="1" fill="#465347"/><rect x="18" y="4" width="3" height="1" fill="#465347"/><rect x="31" y="23" width="1" height="1" fill="#607052"/><rect x="12" y="10" width="2" height="1" fill="#465347"/><rect x="25" y="29" width="3" height="1" fill="#465347"/><rect x="6" y="16" width="1" height="1" fill="#607052"/><rect x="19" y="3" width="2" height="1" fill="#465347"/><rect x="0" y="22" width="3" height="1" fill="#465347"/><path d="M2 24h4v-1h6v1h4v2h-6v1H4v-1H2zM20 7h3V6h5v2h2v2h-5v1h-5z" fill="#566548"/><rect x="7" y="17" width="4" height="2" fill="#394b42"/><rect x="8" y="16" width="3" height="1" fill="#82927b"/><rect x="11" y="17" width="1" height="2" fill="#667961"/><path d="M21 26v-3h1v2h1v-4h1v4h2v-2h1v4z" fill="#798755"/></g></svg></g><g transform="translate(128 0)"><svg width="32" height="16" viewBox="0 0 32 32" preserveAspectRatio="none"><defs><clipPath id="diamond1280"><path d="M16 0L32 16L16 32L0 16Z"/></clipPath></defs><g clip-path="url(#diamond1280)"><rect x="0" y="0" width="32" height="32" fill="#27444d"/><rect x="0" y="0" width="3" height="1" fill="#578079"/><rect x="11" y="7" width="4" height="1" fill="#345763"/><rect x="22" y="14" width="5" height="1" fill="#345763"/><rect x="1" y="21" width="6" height="1" fill="#578079"/><rect x="12" y="28" width="3" height="1" fill="#345763"/><rect x="23" y="3" width="4" height="1" fill="#345763"/><rect x="2" y="10" width="5" height="1" fill="#578079"/><rect x="13" y="17" width="6" height="1" fill="#345763"/><rect x="24" y="24" width="3" height="1" fill="#345763"/><rect x="3" y="31" width="4" height="1" fill="#578079"/><rect x="14" y="6" width="5" height="1" fill="#345763"/><rect x="25" y="13" width="6" height="1" fill="#345763"/><path d="M3 15h7v1H3zM19 4h6v1h-6zM16 26h9v1h-9z" fill="#3a626b"/></g></svg></g><g transform="translate(160 0)"><svg width="32" height="16" viewBox="0 0 32 32" preserveAspectRatio="none"><defs><clipPath id="diamond1600"><path d="M16 0L32 16L16 32L0 16Z"/></clipPath></defs><g clip-path="url(#diamond1600)"><rect x="0" y="0" width="32" height="32" fill="#27444d"/><rect x="2" y="0" width="3" height="1" fill="#578079"/><rect x="13" y="7" width="4" height="1" fill="#345763"/><rect x="24" y="14" width="5" height="1" fill="#345763"/><rect x="3" y="21" width="6" height="1" fill="#578079"/><rect x="14" y="28" width="3" height="1" fill="#345763"/><rect x="25" y="3" width="4" height="1" fill="#345763"/><rect x="4" y="10" width="5" height="1" fill="#578079"/><rect x="15" y="17" width="6" height="1" fill="#345763"/><rect x="26" y="24" width="3" height="1" fill="#345763"/><rect x="5" y="31" width="4" height="1" fill="#578079"/><rect x="16" y="6" width="5" height="1" fill="#345763"/><rect x="27" y="13" width="6" height="1" fill="#345763"/><path d="M3 15h7v1H3zM19 4h6v1h-6zM16 26h9v1h-9z" fill="#3a626b"/></g></svg></g><g transform="translate(0 16)"><svg width="32" height="16" viewBox="0 0 32 32" preserveAspectRatio="none"><defs><clipPath id="diamond032"><path d="M16 0L32 16L16 32L0 16Z"/></clipPath></defs><g clip-path="url(#diamond032)"><rect x="0" y="0" width="32" height="32" fill="#27444d"/><rect x="4" y="0" width="3" height="1" fill="#578079"/><rect x="15" y="7" width="4" height="1" fill="#345763"/><rect x="26" y="14" width="5" height="1" fill="#345763"/><rect x="5" y="21" width="6" height="1" fill="#578079"/><rect x="16" y="28" width="3" height="1" fill="#345763"/><rect x="27" y="3" width="4" height="1" fill="#345763"/><rect x="6" y="10" width="5" height="1" fill="#578079"/><rect x="17" y="17" width="6" height="1" fill="#345763"/><rect x="28" y="24" width="3" height="1" fill="#345763"/><rect x="7" y="31" width="4" height="1" fill="#578079"/><rect x="18" y="6" width="5" height="1" fill="#345763"/><rect x="29" y="13" width="6" height="1" fill="#345763"/><path d="M3 15h7v1H3zM19 4h6v1h-6zM16 26h9v1h-9z" fill="#3a626b"/></g></svg></g><g transform="translate(32 16)"><svg width="32" height="16" viewBox="0 0 32 32" preserveAspectRatio="none"><defs><clipPath id="diamond3232"><path d="M16 0L32 16L16 32L0 16Z"/></clipPath></defs><g clip-path="url(#diamond3232)"><rect x="0" y="0" width="32" height="32" fill="#27444d"/><rect x="6" y="0" width="3" height="1" fill="#578079"/><rect x="17" y="7" width="4" height="1" fill="#345763"/><rect x="28" y="14" width="5" height="1" fill="#345763"/><rect x="7" y="21" width="6" height="1" fill="#578079"/><rect x="18" y="28" width="3" height="1" fill="#345763"/><rect x="29" y="3" width="4" height="1" fill="#345763"/><rect x="8" y="10" width="5" height="1" fill="#578079"/><rect x="19" y="17" width="6" height="1" fill="#345763"/><rect x="30" y="24" width="3" height="1" fill="#345763"/><rect x="9" y="31" width="4" height="1" fill="#578079"/><rect x="20" y="6" width="5" height="1" fill="#345763"/><rect x="31" y="13" width="6" height="1" fill="#345763"/><path d="M3 15h7v1H3zM19 4h6v1h-6zM16 26h9v1h-9z" fill="#3a626b"/></g></svg></g></svg>